PathFileType	4	(x/y/z)	S06_M20_T14
DataRate	CameraRate	NumFrames	NumMarkers	Units	OrigDataRate	OrigDataStartFrame	OrigNumFrames
240	240	7	51	mm	240	1	488
Frame#	Time	Sternum			R.Acromium			L.Acromium			Top.Head			R.ASIS			L.ASIS			R.PSIS			L.PSIS			R.Great.Tro			L.Great.Tro			R.Iliac.Crest			L.Iliac.Crest			V.Sacral			R.Thigh.Upper.Post			R.Thigh.Lower.Ant			R.Thigh.Lower.Post			R.Thigh.Upper.Ant			R.Knee.Lat			R.Knee.Med			R.Shank.Upper.Post			R.Shank.Lower.Ant			R.Shank.Lower.Post			R.Shank.Upper.Ant			R.Ankle.Lat			R.Ankle.Med			R.Heel.Upper			R.Heel.Med			R.Heel.Lat			R.Toe.Lat			R.Toe.Med			R.Toe.Tip			L.Thigh.Upper.Post			L.Thigh.Lower.Ant			L.Thigh.Lower.Post			L.Thigh.Upper.Ant			L.Knee.Lat			L.Knee.Med			L.Shank.Upper.Post			L.Shank.Lower.Ant			L.Shank.Lower.Post			L.Shank.Upper.Ant			L.Ankle.Lat			L.Ankle.Med			L.Heel.Upper			L.Heel.Med			L.Heel.Lat			L.Toe.Lat			L.Toe.Med			L.Toe.Tip			Cervical.Spine			Back			
		X1	Y1	Z1	X2	Y2	Z2	X3	Y3	Z3	X4	Y4	Z4	X5	Y5	Z5	X6	Y6	Z6	X7	Y7	Z7	X8	Y8	Z8	X9	Y9	Z9	X10	Y10	Z10	X11	Y11	Z11	X12	Y12	Z12	X13	Y13	Z13	X14	Y14	Z14	X15	Y15	Z15	X16	Y16	Z16	X17	Y17	Z17	X18	Y18	Z18	X19	Y19	Z19	X20	Y20	Z20	X21	Y21	Z21	X22	Y22	Z22	X23	Y23	Z23	X24	Y24	Z24	X25	Y25	Z25	X26	Y26	Z26	X27	Y27	Z27	X28	Y28	Z28	X29	Y29	Z29	X30	Y30	Z30	X31	Y31	Z31	X32	Y32	Z32	X33	Y33	Z33	X34	Y34	Z34	X35	Y35	Z35	X36	Y36	Z36	X37	Y37	Z37	X38	Y38	Z38	X39	Y39	Z39	X40	Y40	Z40	X41	Y41	Z41	X42	Y42	Z42	X43	Y43	Z43	X44	Y44	Z44	X45	Y45	Z45	X46	Y46	Z46	X47	Y47	Z47	X48	Y48	Z48	X49	Y49	Z49	X50	Y50	Z50	X51	Y51	Z51	

1	0	NaN	NaN	NaN	-1669.2	1478.4	504.8	-1705.8	1478.1	156.1	-1646.3	1790.9	327.42	NaN	NaN	NaN	NaN	NaN	NaN	-1788.3	1052.2	365.25	-1791.4	1053.3	285.68	-1672	966.88	514.24	-1676.8	954.81	156.1	-1687.9	1112.8	495.01	-1660.8	1100.7	172.27	-1805.4	1019.8	330.9	-1756.4	736.55	493.41	NaN	NaN	NaN	NaN	NaN	NaN	-1684.9	721.88	480.66	-1827	547.75	450.81	-1803.6	552.05	324.07	-1956.8	353.42	431.95	NaN	NaN	NaN	-1986.7	284.25	410.53	-1890.4	338.89	431.53	-2011.2	152.81	383.47	-1986.2	152.61	301.7	-2080.4	129.83	329.59	-2075.9	95.409	302.05	-2083.9	100.4	365.13	-1922	48.745	427.32	-1883.2	45.64	309.11	-1820.5	50.317	361.89	-1528.2	718.61	172.91	NaN	NaN	NaN	-1516.7	629.85	192.27	-1480.2	752.6	215.94	-1495.9	543.42	209.52	NaN	NaN	NaN	-1435.8	320.38	216.55	-1348.8	296.83	208.72	-1405.9	254.89	231.14	-1382.4	358.49	199.74	-1290	148.22	221.65	-1284.3	177.8	307.63	NaN	NaN	NaN	-1299.6	54.541	309.35	-1300.8	49.604	247.52	-1157.5	151.2	196.64	NaN	NaN	NaN	-1101.8	232.98	249.99	-1746.5	1531	334.74	-1798.7	1255.2	336.95
2	0.0041667	NaN	NaN	NaN	-1664.5	1478	504.46	-1700.8	1477.5	155.72	-1641.6	1790.4	326.96	NaN	NaN	NaN	NaN	NaN	NaN	-1783.2	1051.8	364.89	-1786.1	1052.8	285.29	-1667.2	966.59	514.02	-1671.7	954.48	156.01	-1682.7	1112.3	494.7	-1655.3	1100.2	172	-1800.1	1019.3	330.49	-1751.6	736.3	493.42	NaN	NaN	NaN	NaN	NaN	NaN	-1680	721.59	480.69	-1822.6	547.62	450.89	-1798.9	551.68	324.22	-1953.8	354.27	432.16	NaN	NaN	NaN	-1984.2	285.34	410.79	-1887.3	339.22	431.71	-2009.9	154.18	383.74	-1984.9	153.78	301.99	-2079.2	131.83	329.94	-2075.1	97.494	302.28	-2083.1	102.37	365.4	-1921.7	48.841	427.38	-1882.9	45.78	309.15	-1820.4	50.194	361.98	-1522.1	718.73	172.91	NaN	NaN	NaN	-1510.3	629.98	192.29	-1474.3	752.75	216.13	-1489.7	543.34	209.49	NaN	NaN	NaN	-1431.5	319.79	216.54	-1344.8	295.15	208.28	-1402.6	254.15	231.09	-1377.8	357.46	199.96	-1287.2	146.58	221.86	-1281.8	175.9	308.08	NaN	NaN	NaN	-1298.1	52.799	309.08	-1298.9	48.087	247.35	-1154.8	148.84	197.38	NaN	NaN	NaN	-1098.7	230.04	251.23	-1741.6	1530.5	334.35	-1793.7	1254.6	336.64
3	0.0083333	NaN	NaN	NaN	-1659.6	1477.7	504.09	-1695.7	1477	155.32	-1636.7	1790	326.47	NaN	NaN	NaN	NaN	NaN	NaN	-1777.8	1051.3	364.52	-1780.6	1052.2	284.89	-1662.2	966.29	513.79	-1666.4	954.17	155.92	-1677.2	1111.8	494.38	-1649.6	1099.7	171.71	-1794.6	1018.8	330.06	-1746.6	736.03	493.43	NaN	NaN	NaN	NaN	NaN	NaN	-1674.9	721.29	480.74	-1817.9	547.47	450.98	-1793.9	551.3	324.37	NaN	NaN	NaN	NaN	NaN	NaN	-1981.6	286.49	411.06	-1884	339.59	431.88	-2008.5	155.62	384.03	-1983.6	155	302.3	-2077.8	133.95	330.3	-2074.1	99.703	302.52	-2082.2	104.45	365.68	-1921.3	48.943	427.45	-1882.6	45.923	309.2	-1820.3	50.07	362.07	-1515.6	718.83	172.92	NaN	NaN	NaN	-1503.7	630.1	192.32	-1468.1	752.88	216.3	-1483.3	543.22	209.46	NaN	NaN	NaN	-1427.1	319.17	216.51	-1340.6	293.45	207.9	-1399.1	253.36	231.03	-1372.9	356.38	200.19	-1284.4	144.85	222.08	-1279.2	173.9	308.53	NaN	NaN	NaN	-1296.5	51.03	308.82	-1296.9	46.548	247.18	-1152	146.35	198.15	-1138.7	177.3	311.97	-1095.6	226.93	252.53	-1736.4	1529.9	333.95	-1788.5	1254.1	336.3
4	0.0125	NaN	NaN	NaN	-1654.5	1477.3	503.7	-1690.4	1476.4	154.91	-1631.6	1789.5	325.97	NaN	NaN	NaN	NaN	NaN	NaN	-1772.2	1050.9	364.12	-1774.8	1051.7	284.47	-1656.9	965.98	513.55	-1660.9	953.87	155.81	-1671.6	1111.3	494.04	-1643.7	1099.2	171.42	-1788.8	1018.2	329.61	-1741.3	735.75	493.45	NaN	NaN	NaN	NaN	NaN	NaN	-1669.5	720.99	480.79	-1813.1	547.3	451.08	-1788.8	550.88	324.55	NaN	NaN	NaN	NaN	NaN	NaN	-1978.8	287.69	411.34	-1880.6	340	432.04	-2007.1	157.13	384.33	-1982.1	156.29	302.61	-2076.4	136.18	330.67	-2073.1	102.03	302.76	-2081.3	106.63	365.96	-1921	49.052	427.52	-1882.3	46.068	309.25	-1820.3	49.948	362.15	-1509	718.92	172.93	NaN	NaN	NaN	-1496.9	630.2	192.35	-1461.7	752.98	216.46	-1476.7	543.09	209.43	NaN	NaN	NaN	-1422.6	318.51	216.46	-1336.3	291.74	207.59	-1395.5	252.53	230.95	-1368	355.24	200.42	-1281.6	143.05	222.32	-1276.6	171.83	308.98	NaN	NaN	NaN	-1295	49.256	308.57	-1295	45.008	247.01	-1149.2	143.74	198.96	-1136.7	174.14	312.86	-1092.4	223.67	253.85	-1731.1	1529.4	333.52	-1783.1	1253.5	335.96
5	0.016667	NaN	NaN	NaN	-1649.2	1476.9	503.3	-1684.9	1475.9	154.48	-1626.3	1789	325.44	NaN	NaN	NaN	NaN	NaN	NaN	-1766.5	1050.4	363.7	-1768.9	1051.1	284.03	-1651.5	965.65	513.28	-1655.3	953.59	155.69	-1665.8	1110.8	493.7	-1637.5	1098.7	171.12	-1782.8	1017.7	329.14	-1735.9	735.46	493.47	NaN	NaN	NaN	NaN	NaN	NaN	-1663.9	720.68	480.86	-1808	547.1	451.19	-1783.4	550.45	324.73	NaN	NaN	NaN	NaN	NaN	NaN	-1975.9	288.94	411.63	-1876.9	340.45	432.18	-2005.5	158.71	384.63	-1980.6	157.65	302.94	-2074.9	138.51	331.04	-2072	104.47	302.99	-2080.3	108.91	366.24	-1920.6	49.17	427.59	-1881.9	46.214	309.31	-1820.2	49.828	362.24	-1502.3	718.99	172.95	NaN	NaN	NaN	-1490	630.29	192.39	-1455.1	753.04	216.6	-1470	542.92	209.38	NaN	NaN	NaN	-1417.9	317.82	216.4	-1331.8	290.04	207.35	-1391.9	251.64	230.87	-1362.9	354.06	200.66	-1278.7	141.2	222.57	-1274	169.71	309.42	NaN	NaN	NaN	-1293.5	47.504	308.34	-1293.1	43.489	246.86	-1146.4	141.02	199.8	-1134.6	170.85	313.77	-1089.2	220.25	255.21	-1725.7	1528.9	333.08	-1777.5	1253	335.6
6	0.020833	NaN	NaN	NaN	-1643.8	1476.6	502.88	-1679.3	1475.3	154.03	-1620.9	1788.6	324.91	NaN	NaN	NaN	NaN	NaN	NaN	-1760.5	1050	363.27	-1762.7	1050.6	283.58	-1645.8	965.32	513.01	-1649.6	953.35	155.56	-1659.9	1110.3	493.35	-1631.3	1098.2	170.81	-1776.7	1017.1	328.65	-1730.2	735.17	493.5	NaN	NaN	NaN	NaN	NaN	NaN	-1658.2	720.38	480.94	-1802.7	546.89	451.31	-1777.8	549.99	324.94	NaN	NaN	NaN	NaN	NaN	NaN	-1972.8	290.25	411.93	-1873.1	340.94	432.3	-2003.8	160.36	384.95	-1978.9	159.05	303.27	-2073.3	140.96	331.4	-2070.8	107.03	303.22	-2079.3	111.3	366.52	-1920.2	49.298	427.66	-1881.6	46.36	309.38	-1820.1	49.713	362.31	-1495.4	719.04	172.98	NaN	NaN	NaN	-1483	630.34	192.43	-1448.4	753.06	216.71	-1463.3	542.72	209.32	NaN	NaN	NaN	-1413.3	317.1	216.31	-1327.3	288.35	207.21	-1388.2	250.7	230.77	-1357.9	352.83	200.91	-1275.9	139.31	222.82	-1271.4	167.54	309.87	NaN	NaN	NaN	-1292.1	45.796	308.12	-1291.3	42.013	246.72	-1143.6	138.19	200.66	-1132.5	167.46	314.71	-1085.9	216.7	256.58	-1720.1	1528.3	332.62	-1771.8	1252.4	335.22
7	0.025	NaN	NaN	NaN	-1638.2	1476.2	502.44	-1673.6	1474.8	153.58	-1615.5	1788.2	324.35	NaN	NaN	NaN	NaN	NaN	NaN	-1754.5	1049.5	362.81	-1756.5	1050	283.11	-1640	964.98	512.71	-1643.7	953.13	155.41	-1653.8	1109.8	492.99	-1624.9	1097.8	170.49	-1770.4	1016.5	328.15	-1724.4	734.87	493.53	NaN	NaN	NaN	NaN	NaN	NaN	-1652.3	720.07	481.03	-1797.1	546.65	451.44	-1772	549.51	325.16	NaN	NaN	NaN	NaN	NaN	NaN	-1969.6	291.59	412.23	-1869.1	341.46	432.42	-2002.1	162.07	385.26	-1977.2	160.52	303.62	-2071.6	143.5	331.77	-2069.6	109.7	303.44	-2078.1	113.78	366.78	-1919.8	49.437	427.72	-1881.2	46.506	309.45	-1819.9	49.604	362.38	-1488.4	719.05	173.01	NaN	NaN	NaN	-1476	630.36	192.48	-1441.5	753.04	216.79	-1456.5	542.48	209.26	NaN	NaN	NaN	-1408.6	316.35	216.2	-1322.8	286.69	207.16	-1384.4	249.73	230.65	-1352.7	351.57	201.15	-1273.1	137.38	223.09	-1268.8	165.34	310.3	NaN	NaN	NaN	-1290.7	44.16	307.94	-1289.5	40.604	246.59	-1140.8	135.27	201.54	-1130.3	163.98	315.66	-1082.7	213.02	257.96	-1714.5	1527.8	332.14	-1766	1251.8	334.84
